<?xml version="1.0" encoding="utf-8"?>
<!-- Generator: Adobe Illustrator 24.3.0, SVG Export Plug-In . SVG Version: 6.00 Build 0)  -->
<svg version="1.1" xmlns="http://www.w3.org/2000/svg" xmlns:xlink="http://www.w3.org/1999/xlink" x="0px" y="0px"
	 viewBox="0 0 104 110" style="enable-background:new 0 0 104 110;" xml:space="preserve">
<g id="Lager_2">
</g>
<g id="Lager_1">
	<g>
		<polygon points="7,89 7,94.1 2.3,89 0.4,89 0.4,97.7 2.5,97.7 2.5,92.3 7.3,97.7 9.1,97.7 9.1,89 		"/>
		<g>
			<path d="M14.5,94.8v1.4c-0.3,0.3-0.7,0.4-1,0.4c-0.4,0-0.6-0.3-0.6-0.6c0-0.4,0.3-0.7,1-1l0.5-0.2L14.5,94.8 M17.3,96.2
				L17.3,96.2c-0.4,0.2-0.6,0.3-0.7,0.3c-0.2,0-0.3-0.1-0.3-0.5v-2.3c0-0.6-0.1-0.8-0.2-1.1c-0.3-0.6-1.2-1-2.3-1
				c-0.4,0-0.9,0.1-1.3,0.2c-0.4,0.1-0.9,0.3-1.3,0.5v1.5c0.6-0.6,1.4-1,2.2-1c0.7,0,1,0.3,1,0.9v0.1l-0.1,0L14.1,94l-0.4,0.1
				c-1.1,0.4-1.4,0.5-1.8,0.7c-0.6,0.3-0.9,0.9-0.9,1.4c0,0.9,0.7,1.5,1.6,1.5c0.6,0,1.2-0.2,1.8-0.6l0.1-0.1c0.1,0.5,0.4,0.6,1,0.6
				c0.5,0,1.2-0.2,1.7-0.5V96.2z"/>
			<path d="M22.8,93.1h-2.1v1.3v0.4v0.2c0,1.2,0.2,1.5,0.9,1.5c0.4,0,0.7-0.1,1.1-0.3c0,0,0.1,0,0.1,0v1.3c-0.6,0.3-1.1,0.4-1.7,0.4
				c-0.8,0-1.5-0.3-1.9-0.9c-0.3-0.4-0.4-0.8-0.4-1.7v-2.1H18v-0.3l2.4-2.8h0.3v1.8h2.1V93.1"/>
			<path d="M26.1,97.7h-1.8v-5.9h1.8V97.7z M25.2,90.9c-0.6,0-1-0.4-1-1c0-0.6,0.5-1,1-1c0.5,0,1,0.5,1,1
				C26.2,90.4,25.8,90.9,25.2,90.9"/>
			<path d="M32.3,94.7c0,0.7-0.1,1.1-0.3,1.4c-0.2,0.3-0.6,0.5-1,0.5c-0.9,0-1.3-0.6-1.3-1.8c0-1.3,0.4-2,1.3-2
				C31.8,92.8,32.3,93.4,32.3,94.7L32.3,94.7 M34.3,94.8c0-0.8-0.2-1.4-0.6-1.9c-0.6-0.7-1.6-1.1-2.6-1.1c-1.9,0-3.3,1.3-3.3,3.1
				c0,1.8,1.4,3,3.3,3C32.9,97.8,34.3,96.6,34.3,94.8"/>
			<path d="M37.8,92.6c0.6-0.7,1.2-1,1.9-1c0.9,0,1.6,0.4,1.9,1.1c0.2,0.4,0.2,0.6,0.2,1.4v3.5H40v-3.3c0-1-0.2-1.4-0.9-1.4
				c-0.5,0-1,0.4-1.3,0.9v3.8H36v-5.9h1.8V92.6"/>
			<path d="M47,94.8v1.4c-0.3,0.3-0.7,0.4-1,0.4c-0.4,0-0.6-0.3-0.6-0.6c0-0.4,0.3-0.7,1-1l0.5-0.2L47,94.8 M49.9,96.2L49.9,96.2
				c-0.4,0.2-0.6,0.3-0.7,0.3c-0.2,0-0.3-0.1-0.3-0.5v-2.3c0-0.6-0.1-0.8-0.2-1.1c-0.3-0.6-1.2-1-2.3-1c-0.4,0-0.9,0.1-1.3,0.2
				c-0.4,0.1-0.9,0.3-1.3,0.5v1.5c0.6-0.6,1.4-1,2.2-1c0.7,0,1,0.3,1,0.9v0.1l-0.1,0L46.7,94l-0.4,0.1c-1.1,0.4-1.4,0.5-1.8,0.7
				c-0.6,0.3-0.9,0.9-0.9,1.4c0,0.9,0.7,1.5,1.6,1.5c0.6,0,1.2-0.2,1.8-0.6l0.1-0.1c0.1,0.5,0.4,0.6,1,0.6c0.5,0,1.2-0.2,1.7-0.5
				V96.2z"/>
			<rect x="51.2" y="89" width="1.9" height="8.7"/>
			<polygon points="65.2,97.7 58.6,97.7 58.6,89 60.8,89 60.8,96 65.2,96 			"/>
			<path d="M68.5,97.7h-1.8v-5.9h1.8V97.7z M67.7,90.9c-0.6,0-1-0.4-1-1c0-0.6,0.5-1,1-1c0.5,0,1,0.5,1,1
				C68.7,90.4,68.2,90.9,67.7,90.9"/>
			<path d="M72.5,93.3c0.3-0.2,0.7-0.4,1.1-0.4c0.9,0,1.5,0.7,1.5,1.8c0,1.1-0.5,1.8-1.4,1.8c-0.4,0-0.7-0.1-1.1-0.4V93.3 M72.5,89
				h-1.8v8.7h1.8v-0.4c0.5,0.4,1.1,0.6,1.6,0.6c1.6,0,2.7-1.3,2.7-3.1c0-1.8-1.2-3-2.9-3c-0.6,0-0.9,0.1-1.5,0.4V89z"/>
			<path d="M80.4,93.5L80.4,93.5c0.2-0.4,0.4-0.8,0.7-1.2c0.3-0.4,0.7-0.6,1.2-0.6c0.4,0,0.7,0.1,1.2,0.5L83,93.9
				c-0.4-0.3-0.8-0.4-1.1-0.4c-0.6,0-1.1,0.6-1.4,1.4L80.5,95l0,0.1v2.5h-1.8v-5.9h1.8V93.5"/>
			<path d="M87.6,94.8v1.4c-0.3,0.3-0.7,0.4-1,0.4c-0.4,0-0.6-0.3-0.6-0.6c0-0.4,0.3-0.7,1-1l0.5-0.2L87.6,94.8 M90.5,96.2
				L90.5,96.2c-0.4,0.2-0.6,0.3-0.7,0.3c-0.2,0-0.3-0.1-0.3-0.5v-2.3c0-0.6-0.1-0.8-0.2-1.1c-0.3-0.6-1.2-1-2.3-1
				c-0.4,0-0.9,0.1-1.3,0.2c-0.4,0.1-0.9,0.3-1.3,0.5v1.5c0.6-0.6,1.4-1,2.2-1c0.7,0,1,0.3,1,0.9v0.1l-0.1,0L87.3,94l-0.4,0.1
				c-1.1,0.4-1.4,0.5-1.8,0.7c-0.6,0.3-0.9,0.9-0.9,1.4c0,0.9,0.7,1.5,1.6,1.5c0.6,0,1.2-0.2,1.8-0.6l0.1-0.1c0.1,0.5,0.4,0.6,1,0.6
				c0.5,0,1.2-0.2,1.7-0.5V96.2z"/>
			<path d="M93.6,93.5L93.6,93.5c0.2-0.4,0.4-0.8,0.7-1.2c0.3-0.4,0.7-0.6,1.2-0.6c0.4,0,0.7,0.1,1.2,0.5l-0.5,1.6
				c-0.4-0.3-0.7-0.4-1.1-0.4c-0.6,0-1.1,0.6-1.4,1.4L93.7,95l0,0.1v2.5h-1.8v-5.9h1.8V93.5"/>
			<polygon points="99.7,100.5 97.8,100.5 99.5,96.7 97.2,91.8 99.2,91.8 100.4,94.7 101.7,91.8 103.6,91.8 			"/>
			<path d="M23.9,106.6c0,0.7-0.1,1.1-0.3,1.4c-0.2,0.3-0.6,0.5-1,0.5c-0.9,0-1.3-0.6-1.3-1.8c0-1.3,0.4-2,1.3-2
				C23.5,104.7,23.9,105.3,23.9,106.6L23.9,106.6 M25.9,106.6c0-0.8-0.2-1.4-0.6-1.9c-0.6-0.7-1.6-1.1-2.6-1.1
				c-1.9,0-3.3,1.3-3.3,3.1c0,1.8,1.4,3,3.3,3C24.6,109.6,25.9,108.4,25.9,106.6"/>
			<path d="M30.6,103.7v1.2h-0.8v4.6h-1.8v-4.6h-0.8v-1.2h0.8v-0.2c0-0.8,0.1-1.3,0.4-1.7c0.2-0.3,0.4-0.5,0.6-0.7
				c0.4-0.3,0.9-0.4,1.5-0.4c0.2,0,0.4,0,0.6,0l0.4,0.1l0.1,0v1.5l-0.1,0c-0.3,0-0.5-0.1-0.7-0.1c-0.7,0-1,0.3-1,1.2v0.2H30.6"/>
			<path d="M42,103.2l-0.2-0.1c-1-0.5-1.9-0.8-2.6-0.8c-0.8,0-1.3,0.3-1.3,0.7c0,0.4,0.4,0.7,1.4,1l0.7,0.3c1.7,0.6,2.4,1.4,2.4,2.7
				c0,1.5-1.4,2.6-3.4,2.6c-0.7,0-1.4-0.1-2.3-0.5c-0.5-0.2-0.5-0.2-0.8-0.4v-1.9c0.6,0.4,1,0.6,1.4,0.7c0.5,0.2,1.1,0.3,1.6,0.3
				c0.8,0,1.3-0.3,1.3-0.8c0-0.4-0.3-0.7-1.2-1l-0.5-0.2c-0.7-0.2-1-0.4-1.4-0.6c-0.3-0.2-0.6-0.4-0.8-0.6c-0.4-0.4-0.6-1-0.6-1.6
				c0-1.5,1.3-2.5,3.3-2.5c1,0,1.8,0.2,2.9,0.7V103.2"/>
			<polygon points="50.7,109.6 49.8,109.6 48.4,106.4 46.9,109.6 46.1,109.6 43.4,103.7 45.3,103.7 46.5,106.8 47.8,103.7 
				48.9,103.7 50.2,106.8 51.5,103.7 53.4,103.7 			"/>
			<path d="M56.3,105.9c0.1-0.7,0.6-1.3,1.3-1.3c0.7,0,1.2,0.5,1.3,1.3H56.3 M60.3,107.7L60.3,107.7c-0.9,0.6-1.4,0.8-2.2,0.8
				c-1.2,0-1.9-0.6-1.9-1.6h4.2v-0.2c0-1.9-1.2-3.2-3-3.2c-1.8,0-3.1,1.3-3.1,3c0,1.8,1.3,3,3.2,3c1.2,0,2.1-0.3,2.8-0.8V107.7z"/>
			<path d="M66.2,107.9c-0.4,0.3-0.7,0.4-1.1,0.4c-0.9,0-1.4-0.7-1.4-1.7c0-1.2,0.5-1.8,1.4-1.8c0.3,0,0.8,0.1,1,0.3V107.9
				 M68,100.9h-1.8v3.1c-0.5-0.2-1-0.4-1.5-0.4c-1.7,0-2.8,1.2-2.8,3c0,1.8,1.2,3,2.7,3c0.6,0,1.1-0.2,1.6-0.6v0.5H68V100.9z"/>
			<path d="M71.7,105.9c0.1-0.7,0.6-1.3,1.3-1.3c0.7,0,1.2,0.5,1.3,1.3H71.7 M75.8,107.7L75.8,107.7c-0.9,0.6-1.4,0.8-2.2,0.8
				c-1.2,0-1.9-0.6-1.9-1.6h4.2v-0.2c0-1.9-1.2-3.2-3-3.2c-1.8,0-3.1,1.3-3.1,3c0,1.8,1.3,3,3.2,3c1.2,0,2.1-0.3,2.8-0.8V107.7z"/>
			<path d="M79.4,104.5c0.6-0.7,1.2-1,1.9-1c0.9,0,1.6,0.4,1.9,1.1c0.2,0.4,0.2,0.6,0.2,1.4v3.5h-1.9v-3.3c0-1-0.2-1.4-0.9-1.4
				c-0.5,0-1,0.4-1.3,0.9v3.8h-1.8v-5.9h1.8V104.5"/>
			<polygon points="26.7,15.2 32.6,15.4 30.8,17.4 25.5,17.3 28.5,20 27,21.6 20.6,15.8 22.1,14.2 25,16.8 25,16.8 23.9,12.1 
				25.5,10.4 			"/>
		</g>
		<g>
			<path d="M41.8,6.3c0.1,0.3,0.3,0.6,0.3,0.9c0.2,0.6,0.2,1.3,0.1,1.9c-0.2,0.7-0.8,1.5-1.5,2c-0.4,0.3-0.8,0.5-1.3,0.7
				c-1,0.5-1.8,0.6-2.7,0.5c-0.5-0.1-0.9-0.2-1.3-0.4c-0.7-0.4-1.2-1-1.6-2l-1.9-4.4l2-0.9l1.8,3.9c0.3,0.8,0.6,1.2,0.9,1.4
				c0.6,0.5,1.4,0.5,2.2,0.2c0.9-0.4,1.5-1.4,1.3-2.3c0-0.2-0.1-0.4-0.2-0.5l-0.3-0.6l-1.8-3.9l2-0.9L41.8,6.3"/>
			<polygon points="56.5,9.2 54.7,9.1 50,3.7 49.9,9.1 47.8,9 47.9,0.4 49.9,0.4 54.4,5.6 54.5,0.5 56.6,0.5 			"/>
		</g>
		<g>
			<path d="M71,8.3l-0.1-0.1c-0.7-0.9-1.6-1.6-2.5-2c-1.7-0.8-3.3-0.4-4,1.1c-0.7,1.3,0,2.8,1.5,3.6c0.5,0.2,1,0.4,1.5,0.4l0.4-0.9
				l-1.1-0.5l0.7-1.5l3.1,1.5L69,13c-1.1,0.3-2.5,0.1-3.8-0.6c-2.7-1.3-3.8-3.9-2.7-6.2c1.2-2.4,3.8-3.1,6.6-1.7
				c0.7,0.3,1.4,0.8,1.9,1.2c0.3,0.3,0.5,0.4,0.9,0.9L71,8.3"/>
			<polygon points="76.5,21.9 72.2,17 78.7,11.3 80.1,12.9 74.8,17.6 77.8,20.9 			"/>
			<path d="M21.1,32.2L21,33c-0.2,1-0.5,1.3-1.2,1.2c-0.7-0.1-0.9-0.6-0.7-1.6l0.1-0.8L21.1,32.2 M23.1,30.3l-8.5-1.5l-0.7,3.9
				c-0.1,0.8-0.2,1.2-0.1,1.6c0.2,1.1,0.9,1.9,2,2.1c1.1,0.2,1.9-0.3,2.5-1.4c0.2,0.8,0.8,1.3,1.5,1.5c0.9,0.2,1.8-0.4,2.3-1.3
				c0.2-0.4,0.3-0.7,0.5-1.6L23.1,30.3z M17.8,31.6l-0.2,0.9c-0.3,1.4-0.6,1.8-1.4,1.7c-0.8-0.1-0.9-0.6-0.7-2l0.2-1L17.8,31.6z"/>
			<rect x="13.6" y="42.5" transform="matrix(0.991 -0.1337 0.1337 0.991 -5.6736 2.7928)" width="8.7" height="2.2"/>
			<path d="M23.1,51.8l0.4,0.8c0.4,0.9,0.4,1.4-0.2,1.7c-0.6,0.3-1,0.1-1.5-0.9l-0.4-0.7L23.1,51.8 M23.5,49.2L15.8,53l1.8,3.6
				c0.3,0.7,0.6,1.1,0.9,1.4c0.8,0.8,1.9,1,2.8,0.5c1-0.5,1.4-1.4,1.2-2.6c0.6,0.5,1.4,0.6,2.1,0.3c0.8-0.4,1.2-1.4,1-2.4
				c-0.1-0.5-0.2-0.8-0.6-1.6L23.5,49.2z M20,53.4l0.4,0.9c0.7,1.3,0.6,1.8-0.1,2.2c-0.7,0.3-1.1,0.1-1.7-1.2l-0.5-1L20,53.4z"/>
			<polygon points="28.3,69.7 23.5,65.2 29.4,58.9 31,60.4 26.2,65.5 29.4,68.5 			"/>
			<rect x="30.9" y="67.8" transform="matrix(0.4856 -0.8742 0.8742 0.4856 -42.0811 66.1941)" width="8.7" height="2.2"/>
			<path d="M48.7,73.2c-0.3,1.5-1.6,2.4-3.1,2.1c-1.6-0.3-2.5-1.5-2.3-3.1c0.3-1.6,1.5-2.4,3.1-2.2C48.1,70.4,49,71.6,48.7,73.2
				 M51,73.5c0.4-2.5-1.4-4.8-4.2-5.2c-2.8-0.5-5.2,1.1-5.6,3.6c-0.4,2.5,1.4,4.7,4.1,5.2C48.1,77.5,50.5,76,51,73.5"/>
			<polygon points="63.3,68.6 60.3,69.3 61.9,76.1 59.8,76.6 58.1,69.8 55.1,70.5 54.7,69 62.9,67 			"/>
			<polygon points="77.1,68.1 72,71.9 66.9,64.9 71.9,61.2 72.9,62.5 69.6,64.9 70.6,66.3 73.8,64 74.7,65.3 71.6,67.6 72.8,69.3 
				76.2,66.8 			"/>
			<polygon points="81,56.1 86.9,55.3 85.5,57.6 80.2,58.4 83.7,60.5 82.5,62.4 75.2,57.8 76.3,55.9 79.7,58 79.7,58 77.8,53.6 
				79,51.6 			"/>
			<polygon points="90.2,42.8 89,49.1 80.5,47.5 81.6,41.3 83.2,41.6 82.5,45.6 84.2,46 84.9,42.1 86.5,42.4 85.8,46.3 87.8,46.6 
				88.6,42.5 			"/>
			<polygon points="81.6,28.4 82.3,31.5 89.2,30 89.6,32.2 82.7,33.6 83.4,36.7 81.8,37 80.1,28.7 			"/>
			<path d="M50.5,29.4l0-2.7c0,0,1.2,0,2.9,0l0,2.7L50.5,29.4"/>
			<path d="M50.5,46.6l0-14.5c0,0,2.9,0,2.9,0l0,14.5L50.5,46.6"/>
			<polygon points="38.5,49.3 37.9,46.5 50.5,46.6 50.5,49.4 			"/>
			<polygon points="65.4,49.4 66,46.5 53.4,46.5 53.4,49.4 			"/>
			<path d="M34.5,31.5c0,0,8.4-2.3,16-2.2l0,2.7c0,0-6.8-0.2-15.4,2.1L34.5,31.5"/>
			<path d="M69.4,31.5c0,0-8.4-2.3-16.1-2.2l0,2.7c0,0,6.9-0.3,15.5,2.1L69.4,31.5"/>
			<path d="M31.7,32.2l-0.6-2.6c0,0,1.2-0.3,2.8-0.6l0.6,2.6L31.7,32.2"/>
			<path d="M35.1,47.2l-2.8-12.4c0,0,2.8-0.6,2.8-0.6l2.8,12.4L35.1,47.2"/>
			<path d="M72.2,32.2l0.6-2.6c0,0-1.2-0.3-2.8-0.6l-0.6,2.6L72.2,32.2"/>
			<path d="M68.8,47.2l2.8-12.4c0,0-2.8-0.6-2.8-0.6L66,46.5L68.8,47.2"/>
			<path d="M21,25.2c-0.6,0-1.1-0.5-1.1-1.1c0-0.6,0.5-1.1,1.1-1.1c0.6,0,1.1,0.5,1.1,1.1C22.1,24.7,21.6,25.2,21,25.2"/>
			<path d="M82.6,25.2c-0.6,0-1.1-0.5-1.1-1.1c0-0.6,0.5-1.1,1.1-1.1c0.6,0,1.1,0.5,1.1,1.1C83.7,24.7,83.2,25.2,82.6,25.2"/>
		</g>
	</g>
</g>
</svg>
